<?xml version="1.0" encoding="UTF-8"?>
<svg id="Layer_1" data-name="Layer 1" xmlns="http://www.w3.org/2000/svg" xmlns:xlink="http://www.w3.org/1999/xlink" viewBox="0 0 36 36">
  <defs>
    <style>
      .cls-1 {
        fill: none;
      }

      .cls-2 {
        clip-path: url(#clippath);
      }

      .cls-3 {
        fill: #fbfaf7;
      }

      .cls-4 {
        fill: #fdfdfd;
      }

      .cls-5 {
        fill: #931f25;
      }

      .cls-6 {
        fill: #a3282d;
      }

      .cls-7 {
        fill: #941e24;
      }

      .cls-8 {
        fill: #952027;
      }

      .cls-9 {
        fill: #8c2528;
      }

      .cls-10 {
        fill: #9e262d;
      }

      .cls-11 {
        fill: #922026;
      }

      .cls-12 {
        fill: #922025;
      }

      .cls-13 {
        fill: #8f1f24;
      }

      .cls-14 {
        fill: #8f2126;
      }

      .cls-15 {
        fill: #a82c32;
      }

      .cls-16 {
        fill: #962127;
      }

      .cls-17 {
        fill: #972127;
      }

      .cls-18 {
        fill: #892127;
      }

      .cls-19 {
        fill: #9c262b;
      }

      .cls-20 {
        clip-path: url(#clippath-1);
      }
    </style>
    <clipPath id="clippath">
      <rect class="cls-1" x="3" y="3" width="30" height="30" rx="4.69" ry="4.69"/>
    </clipPath>
    <clipPath id="clippath-1">
      <rect class="cls-1" x="2.5" y="2.5" width="31" height="31"/>
    </clipPath>
  </defs>
  <g class="cls-2">
    <g class="cls-20">
      <g>
        <path class="cls-15" d="M33.46,33.49h-11.3c-.12-.1-.12-.23-.09-.37,.02-.06,.03-.13,.07-.19,.51-.71,.52-1.48,.28-2.28-.06-.21-.12-.41-.36-.47-.15-.08-.22-.22-.28-.37-.35-.82-.82-1.56-1.38-2.25-.14-.17-.29-.34-.35-.57,0-.17-.06-.31-.17-.43-.36-.39-.52-.9-.85-1.3-.21-.26-.21-.53-.13-.82,.1-.41,.14-.81-.09-1.2-.05-.08-.09-.12-.18-.12-.36-.27-.64-.62-.92-.96-.21-.25-.52-.44-.61-.78-.15-.29-.31-.58-.43-.89-.44-1.2-.31-2.02,.71-2.85,.69-.14,.95-.79,1.42-1.19,.23-.19,.25-.47,.14-.76-.08-.2-.18-.38-.32-.54-.12-.44-.43-.81-.44-1.3,0-.32-.11-.63-.33-.9-.13-.16-.18-.36-.2-.56-.06-.71-.1-1.42-.14-2.14-.02-.44,.13-.88,.2-1.32,.19-1.1,.91-1.93,1.44-2.85,.24-.42,.35-.82,.04-1.24-.05-.13-.02-.25,.07-.35,.16-.11,.28,0,.38,.1,.45,.43,.95,.81,1.35,1.3,.3,.36,.68,.64,1.01,.97,.94,.96,1.91,1.91,2.83,2.89,.12,.13,.24,.26,.44,.25,.09,.1,.09,.22,.07,.35-.3,2.3-1.57,3.84-3.66,4.76-.35,.15-.71,.25-1.11,.4,.45,.4,.9,.72,1.31,1.1,.78,.7,1.25,1.58,1.45,2.59,.11,.56-.05,1.13-.44,1.53-.74,.77-.93,1.74-1.16,2.7-.11,.44-.17,.88-.26,1.32-.06,.27-.21,.4-.48,.43-.36,.04-.47,.24-.34,.59,.14,.37,.34,.71,.65,.96,.31,.42,.62,.41,.87-.06,.21-.39,.28-.82,.36-1.25,.01-.08,0-.17,.03-.23,.28-.47,.18-1,.25-1.5,.03-.26,.12-.5,.31-.7,.43-.44,.85-.89,1.25-1.35,.64-.73,1.09-1.54,.73-2.57-.11-.31-.18-.63-.21-.95-.05-.43,.05-.86,.3-1.25,.3-.47,.72-.85,1.02-1.33,.16-.26,.26-.54,.4-.81,.38-.7,.68-1.45,.84-2.22,.12-.56,.24-1.14,.16-1.72,0-.1-.03-.2-.02-.3,.06-.57-.13-1.11-.25-1.65-.03-.15-.09-.3-.09-.46-.01-.21-.12-.33-.33-.35-.07-.03-.11-.08-.12-.16,0-.1,.04-.2,.03-.3-.02-.19,.03-.36,.22-.45,.21-.1,.38,.01,.51,.15,.25,.26,.54,.47,.78,.73,.71,.75,1.45,1.49,2.19,2.21,.71,.68,1.37,1.41,2.06,2.11,.2,.21,.41,.42,.63,.6,.16,.13,.28,.29,.27,.52v19.63c0,.13,.03,.27-.03,.4v.02Z"/>
        <path class="cls-9" d="M25.24,10.01c-.05,.17-.13,.23-.28,.07-.41-.44-.83-.87-1.25-1.3-.67-.68-1.36-1.35-2.03-2.03-.33-.34-.7-.65-1.02-1.01-.41-.46-.89-.84-1.34-1.26-.42-.08-.76,.11-1.09,.33-1.16,.75-1.94,1.81-2.41,3.1-.54,1.46-.71,2.97-.66,4.52,0,.07,.02,.13,.01,.2-.03,.21-.14,.27-.33,.17-.17-.09-.3-.23-.44-.36-1.54-1.37-4.29-1.33-5.89-.06-1.2,.95-1.62,2.48-1.05,3.96,.03,.08,.07,.17,.1,.25,.24,.63,.12,.96-.48,1.3-.74,.42-1.56,.59-2.4,.72-.62,.1-1.25,.11-1.87,0-.15-.03-.25-.08-.32-.21V2.54c.13-.06,.26-.04,.38-.04h30.21c.46,0,.41-.05,.41,.42V12.94c0,.12,.04,.25-.04,.36-.64-.52-1.18-1.12-1.75-1.7-.56-.57-1.1-1.16-1.7-1.69-.61-.54-1.13-1.16-1.7-1.74-.27-.28-.55-.55-.84-.81-.09-.08-.2-.22-.35-.13-.14,.08-.17,.22-.15,.38,.01,.09,.08,.2-.07,.25-.19-.03-.23-.19-.29-.33-.21-.49-.42-.99-.71-1.44-.21-.33-.45-.5-.62-.39-.28,.17-.21,.45-.15,.7,.2,.89,.3,1.8,.35,2.71,.02,.31,.05,.65-.21,.9h-.02Z"/>
        <path class="cls-4" d="M2.5,18.42c.91,.24,1.82,.15,2.73-.03,.58-.12,1.16-.27,1.68-.55,.15-.08,.29-.17,.41-.28,.23-.21,.32-.42,.17-.76-.52-1.12-.67-2.27-.03-3.39,.69-1.2,1.78-1.85,3.15-2.05,1.68-.25,3.15,.14,4.35,1.4,.02,.02,.05,.03,.11,.07-.08-.97-.06-1.91,.08-2.85,.21-1.44,.65-2.79,1.55-3.95,.51-.66,1.14-1.2,1.89-1.58,.24-.12,.52-.28,.74,.05l-.06,.34c.08,.22-.03,.39-.14,.57-.41,.69-.88,1.36-1.23,2.08-.5,1.03-.66,2.11-.55,3.26,.11,1.13,.42,2.19,.81,3.24,.15,.41,.36,.79,.52,1.19,.11,.16,.19,.33,.26,.5,.11,.26,.07,.37-.19,.38-.29,.02-.4,.16-.49,.41-.16,.43-.46,.72-.93,.83-.74,.18-1.08,.64-1.1,1.4-.02,.94,.29,1.77,.86,2.51,.04,.06,.06,.12,.07,.19,.47,.58,1.06,1.06,1.48,1.69,.2,.15,.14,.34,.07,.52-.24,.6-.09,1.13,.27,1.64,.36,.52,.68,1.06,1.08,1.56,.04,.05,.07,.12,.06,.19,.78,.98,1.48,2,1.95,3.17,.23,.12,.26,.36,.27,.58,.05,.85-.12,1.64-.64,2.34-.14,.19-.3,.32-.5,.43h-3.43c-.41-.27-.46-.73-.6-1.13-.22-.65-.29-1.33-.16-2.02,.22-1.18-.3-2.08-1.09-2.89-.33-.34-.74-.61-.98-1.05-.3-.55-.55-1.1-.51-1.74,0-.12-.07-.21-.09-.32-.02-.75,.13-1.49,.22-2.23,.07-.56,.09-1.13-.13-1.67-.08,0-.09,.04-.08,.07,.08,.92-.16,1.8-.3,2.69-.09,.58-.23,1.16-.23,1.76,0,.88,.31,1.66,.79,2.38,.39,.49,.77,1,1.15,1.51,.13,.17,.2,.37,.23,.58,.23,.61,.15,1.22,.02,1.84-.08,.4-.03,.8,.11,1.18,.14,.21,.25,.44,.39,.65,.08,.12,.14,.25,.06,.4h-2.02c-.12-.09-.16-.22-.17-.35-.07-.59-.38-1.07-.71-1.53-.28-.4-.5-.84-.74-1.27-.4-.7-.37-1.45-.37-2.21,.02-.32,.16-.6,.27-.9,.03-.08,.08-.19-.04-.23-.09-.03-.13,.07-.17,.14-.44,.9-.63,1.83-.35,2.82,.08,.28,.12,.57,.34,.79,.38,.68,.72,1.38,.79,2.17,.02,.2,.06,.4-.12,.56H6.81c-.36-.19-.47-.55-.63-.88-.19-.4-.25-.83-.3-1.27-.04-.34,.17-.52,.5-.41,.46,.15,.93,.27,1.41,.3,.95,.06,1.59-.19,1.86-1.19,.07-.26,.08-.53,.12-.79,.16-1.12,.41-2.21,1.23-3.06,.37-.38,.52-.83,.57-1.32,.13-1.24-.27-2.27-1.24-3.06-.66-.53-1.38-.68-2.2-.42-.99,.32-2.01,.5-3.05,.61-.7,.08-1.41,.05-2.11,.06-.17,0-.34,0-.46-.15v-3.52Z"/>
        <path class="cls-15" d="M10.44,21.73c.99,.69,1.52,2.12,1.24,3.4-.1,.46-.26,.87-.63,1.22-.6,.57-.83,1.37-1.01,2.16-.09,.38-.14,.77-.19,1.16-.15,1.27-.86,1.83-2.13,1.7-.5-.05-1-.15-1.47-.34-.19-.07-.24-.03-.23,.16,.02,.62,.16,1.19,.48,1.73,.11,.18,.2,.37,.3,.56-1.34,0-2.69-.01-4.03,0-.25,.02-.27-.06-.27-.28v-10.81c.21-.22,.48-.15,.73-.11,.55,.07,1.1,.07,1.64,0,1.09-.12,2.17-.29,3.24-.54,.47-.11,.94-.14,1.42-.17,.32-.02,.62,.04,.91,.16Z"/>
        <path class="cls-6" d="M14.49,24.32c.1,.53,.12,1.08,.37,1.58,.21,.4,.43,.78,.78,1.08,.33,.28,.62,.61,.9,.95,.57,.69,.79,1.49,.63,2.36-.19,1.03,.06,1.98,.49,2.9,.05,.1,.13,.19,.12,.31h-1.21l-.53-.94c.07-.63,.16-1.26,.13-1.9-.02-.43,.03-.89-.27-1.26-.27-.63-.77-1.09-1.15-1.64-.07-.1-.13-.2-.2-.31,0-.11,0-.23-.08-.31-.23-.24-.33-.52-.36-.84-.03-.32-.08-.64-.12-.95-.05-.41,.14-.78,.51-1.01v-.02Z"/>
        <path class="cls-8" d="M10.44,21.73c-.51-.07-1.01,0-1.52,0-.47,0-.94,.15-1.4,.27-.96,.25-1.95,.32-2.94,.44-.69,.09-1.39-.05-2.08-.07v-.47c1.86,.09,3.68-.1,5.46-.64,.63-.19,1.24-.26,1.86,.03,.23,.11,.43,.26,.62,.43h0Z"/>
        <path class="cls-10" d="M12.67,28.11c-.18,1.4,.49,2.51,1.24,3.58,.38,.54,.66,1.12,.64,1.8h-1.28c-.01-.83-.19-1.62-.63-2.33-.07-.11-.11-.24-.17-.36,0-.28-.15-.52-.2-.79-.08-.42-.16-.82,.14-1.2,.08-.11,.04-.26,.05-.39,.02-.14,0-.3,.21-.31h0Z"/>
        <path class="cls-11" d="M21.21,33.49c.18-.34,.49-.6,.65-.95,.36-.77,.46-1.57,.22-2.4,.02-.08,.08-.13,.14-.06,.14,.16,.35,.29,.34,.55,0,.05,0,.12,.02,.17,.32,.79,.15,1.5-.3,2.19-.1,.15-.14,.33-.12,.51h-.95Z"/>
        <path class="cls-4" d="M25.24,10.01c.12-1.09,0-2.16-.22-3.22-.06-.3-.13-.59-.09-.89,.06-.42,.4-.55,.73-.28,.43,.36,.6,.88,.84,1.35,.14,.29,.25,.59,.37,.89l.05,.14c.15,.05,.18,.18,.22,.31,.42,1.47,.44,2.93-.02,4.4-.48,1.56-1.29,2.92-2.37,4.14-.18,.2-.23,.39-.14,.64,.14,.42,.25,.86,.39,1.29,.21,.64,.04,1.18-.27,1.73-.34,.61-.83,1.09-1.34,1.54-.58,.52-.85,1.14-.91,1.91-.06,.72-.19,1.44-.39,2.14-.05,.18-.12,.36-.21,.53-.17,.29-.33,.33-.66,.19-.43-.27-.63-.69-.74-1.15-.1-.41,.13-.63,.55-.61,.25,.01,.29-.13,.32-.33,.15-.93,.35-1.85,.63-2.75,.13-.4,.32-.75,.61-1.06,.6-.66,.8-1.41,.46-2.29-.38-.97-.98-1.75-1.8-2.37-.34-.25-.66-.53-1.01-.81,2.86-.75,4.74-2.35,4.99-5.43h.01Z"/>
        <path class="cls-5" d="M21.22,26.81c.31,.03,.49-.08,.61-.41,.32-.88,.47-1.81,.54-2.73,.07-.8,.49-1.32,1.02-1.81,.45-.41,.85-.86,1.17-1.38,.36-.58,.51-1.18,.25-1.85-.15-.4-.24-.82-.39-1.22-.09-.24-.06-.4,.12-.59,1.36-1.48,2.3-3.19,2.67-5.19,.22-1.16,.05-2.29-.26-3.42-.02-.07-.03-.15-.04-.23,.29-.11,.42-.05,.47,.24,.16,.9,.43,1.78,.4,2.7-.03,.81-.14,1.61-.4,2.4-.23,.7-.59,1.35-.88,2.02-.22,.5-.59,.92-.98,1.31-.36,.36-.49,.82-.51,1.28-.02,.4,.14,.83,.27,1.23,.19,.61,.05,1.15-.19,1.72-.29,.68-.86,1.12-1.35,1.63-.52,.55-.98,1.11-.8,1.94,0,.06,0,.14-.02,.2-.26,.56-.27,1.19-.46,1.77-.05,.16-.13,.31-.22,.45-.15,.24-.39,.36-.68,.36s-.25-.27-.36-.42h.02Z"/>
        <path class="cls-7" d="M18.65,15.2c-1.13-1.91-1.66-3.97-1.4-6.19,.09-.81,.45-1.54,.86-2.24,.38-.65,.77-1.3,1.16-1.95,.33,.32,.39,.59,.2,.99-.26,.57-.64,1.07-.96,1.61-.24,.4-.47,.79-.55,1.28-.05,.33-.18,.66-.24,1-.11,.68,0,1.36,.05,2.03,.02,.3-.04,.61,.09,.9,.17,.36,.43,.67,.47,1.09,.01,.14,.07,.28,.02,.43-.02,.06-.02,.16,.01,.19,.23,.21,.22,.53,.36,.78-.02,.03-.03,.07-.07,.08h0Z"/>
        <path class="cls-12" d="M18.65,15.2l.07-.08c.23,.2,.32,.49,.4,.76,.16,.49-.26,.71-.53,.98-.07,.07-.17,.12-.2,.22-.13,.32-.32,.55-.72,.55-.15,0-.26,.15-.35,.25-.39,.45-.83,.84-.73,1.59,.06,.48,.2,.92,.33,1.38,.03,.11,.09,.2,.19,.27,.1,.07,.17,.15,.06,.27-.76-.81-1.17-1.76-1.07-2.89,.06-.71,.48-1.2,1.17-1.33,.42-.08,.73-.31,.83-.69,.12-.48,.35-.66,.87-.52l-.31-.74v-.02Z"/>
        <path class="cls-3" d="M19.21,21.54v-.83c0-.47-.14-.63-.6-.74-.19-.05-.44-.02-.44-.34,0-.47,.12-.58,.58-.5,.19,.03,.38,.07,.55,.14,.62,.24,.82,.7,.57,1.31-.15,.35-.36,.66-.65,.96h-.01Z"/>
        <path class="cls-16" d="M20.13,26.97c-.5-.61-.96-1.24-1.4-1.89-.33-.49-.4-1.01-.13-1.55,.08-.15,.04-.3,.05-.46,.11-.08,.2-.1,.27,.04,.16,.36,.3,.73,.17,1.13v.03c-.22,.56,.1,.96,.36,1.42,.22,.39,.52,.73,.72,1.13,.03,.06,.01,.11-.03,.15h0Z"/>
        <path class="cls-19" d="M17.67,26.41c.71,.57,1.46,1.12,2.13,1.73,.98,.89,1.18,2.92,.44,4.01-.21,.3-.46,.56-.85,.6-.12,.01-.27,.08-.34-.05-.07-.13,.07-.23,.16-.3,.26-.2,.43-.46,.49-.78,.06-.31,.08-.62,.07-.93-.07-1.09-.54-1.99-1.29-2.76-.35-.36-.72-.7-1.03-1.1,0-.17-.19-.44,.21-.41h0Z"/>
        <path class="cls-17" d="M14.49,24.32c-.04,.25-.24,.42-.33,.65-.06,.15-.13,.3-.04,.45,.2,.32,.11,.67,.12,1,0,.25,.07,.43,.23,.59,.14,.14,.2,.26,.07,.43-.87-1.16-1.01-2.44-.72-3.84,.18-.85,.42-1.7,.39-2.58,0-.2-.03-.4-.04-.6,0-.14,0-.3,.15-.34,.14-.04,.2,.12,.24,.23,.25,.59,.24,1.21,.16,1.82-.09,.73-.21,1.46-.23,2.2h0Z"/>
        <path class="cls-13" d="M12.67,28.11c-.13,.17-.05,.37-.08,.55-.02,.14,.09,.36-.19,.37-.06,0-.06,.08-.06,.14,.01,.48,0,.97,.2,1.42,.04,.09-.01,.15-.07,.21-.5-.97-.66-1.97-.26-3.03,.09-.24,.18-.48,.27-.72,.07-.19,.19-.37,.42-.29,.22,.08,.16,.3,.1,.47-.1,.29-.22,.58-.33,.88h0Z"/>
        <path class="cls-18" d="M17.67,26.41c-.23,.05-.11,.29-.21,.41-.38-.35-.61-.78-.71-1.29-.12-.56-.24-1.11-.24-1.69v-.17c0-.16,.04-.38,.19-.38s.13,.22,.14,.36c.06,.72,.07,1.45,.38,2.13,.11,.25,.26,.45,.45,.63h0Z"/>
        <path class="cls-14" d="M15.89,29.39c.16-.1,.21,.05,.23,.14,.24,.95,.29,1.9,.02,2.85-.02,.06-.07,.11-.1,.17-.25-.42-.27-.88-.18-1.33,.13-.62,.22-1.22,.03-1.83h0Z"/>
      </g>
    </g>
  </g>
</svg>