<?xml version="1.0" encoding="UTF-8"?>
<svg id="Layer_1" data-name="Layer 1" xmlns="http://www.w3.org/2000/svg" viewBox="0 0 36 36">
  <defs>
    <style>
      .cls-1 {
        fill: #fff;
      }

      .cls-2 {
        fill: #f58220;
      }

      .cls-3 {
        fill: #b12b30;
      }
    </style>
  </defs>
  <path class="cls-2" d="M11.97,9.52C18.84,2.71,27.15,.95,30.47,5.6c3.31,4.65,.41,14-6.46,20.81-6.87,6.81-15.18,8.57-18.49,3.92-3.31-4.65-.41-14,6.46-20.81"/>
  <path class="cls-3" d="M16.53,5.89c-.74,.55-1.53,1.2-2.27,1.95-6.02,5.93-8.52,14.08-5.56,18.16,3.06,4.08,10.47,2.6,16.58-3.43,3.29-3.2,5.51-6.95,6.44-10.42,.28-2.55-.09-4.82-1.25-6.53-2.64-3.61-8.29-3.34-13.94,.28"/>
  <path class="cls-1" d="M19.94,29.78c-3.22,2.41-6.54,3.61-9.78,3.11,1.36,.07,2.46-1.44,3.36-3.47,.92-2.08,1.46-4,1.9-5.81,.64-2.85,.69-4.9,.36-5.33-.55-.73-1.8-.54-3.22,.27-.68,.38-1.58,.12-.51-1.16,1.08-1.3,5.36-4.43,6.9-4.92,1.69-.49,3.62,.18,2.97,2.03-.46,1.35-6.39,16.89-1.98,15.28ZM24.78,5.67c.8,.8,.31,2.55-1.05,3.93-1.38,1.36-3.17,1.85-3.94,1.06-.83-.79-.34-2.57,1.04-3.96,1.39-1.39,3.18-1.82,3.96-1.04"/>
</svg>