<?xml version="1.0" encoding="UTF-8"?>
<svg id="Layer_1" data-name="Layer 1" xmlns="http://www.w3.org/2000/svg" viewBox="0 0 36 36">
  <defs>
    <style>
      .cls-1 {
        fill: #fff;
      }

      .cls-1, .cls-2, .cls-3 {
        fill-rule: evenodd;
      }

      .cls-2 {
        fill: #ec3338;
      }

      .cls-3 {
        fill: #036;
      }
    </style>
  </defs>
  <path id="path33091" class="cls-3" d="M3,18c0-7.12,6.72-12.9,15-12.9s15,5.78,15,12.9-6.72,12.9-15,12.9S3,25.13,3,18"/>
  <path id="path33093" class="cls-2" d="M16.18,9.24l3.48-1.15,.02,18.84-3.51,1.18V9.24Z"/>
  <path id="path33095" class="cls-1" d="M18.25,20.99c-1.51,1.82-2.98,3.69-5.72,3.69-3.87,0-5.71-3.74-5.71-6.87s1.43-6.57,5.21-6.57c1.64,0,3.21,1,4.15,2.06v2.55c-.79-.53-2.54-1.05-3.69-1.07-2.39-.04-4.5,1-4.46,3.36,.02,1.63,1.63,2.73,3.24,2.73,2.46,0,3.94-2.24,5.19-3.95,.35-.44,1.32-1.75,1.48-1.96,1.38-1.93,2.98-3.69,5.72-3.69,3.23,0,5.04,2.6,5.55,5.28h-1.46c-.59-.87-1.71-1.4-2.83-1.4-2.54,0-4.05,2.33-5.32,4.05,0,0-.99,1.35-1.34,1.78h0Zm11.03-1.69c-.33,2.7-1.84,5.42-5.14,5.42-1.93,0-3.43-1.32-4.48-2.93v-1.87c1.31,.65,2.52,1.34,4,1.36,1.82,.03,3.47-.67,4.15-1.99h1.46Z"/>
</svg>