<?xml version="1.0" encoding="UTF-8"?>
<svg id="Layer_1" data-name="Layer 1" xmlns="http://www.w3.org/2000/svg" viewBox="0 0 36 36">
  <defs>
    <style>
      .cls-1, .cls-2 {
        fill: #fff;
      }

      .cls-3 {
        fill: #971a1d;
      }

      .cls-3, .cls-2 {
        fill-rule: evenodd;
      }
    </style>
  </defs>
  <polygon class="cls-3" points="3.35 3 32.65 3 32.65 33 3.35 33 3.35 3 3.35 3"/>
  <g>
    <polygon class="cls-2" points="9.8 12.71 26.2 12.71 26.2 16.83 9.8 16.83 9.8 12.71 9.8 12.71"/>
    <polygon class="cls-2" points="9.8 18.94 20.04 18.94 20.04 23.06 9.8 23.06 9.8 18.94 9.8 18.94"/>
    <polygon class="cls-2" points="9.8 25.17 13.91 25.17 13.91 29.29 9.8 29.29 9.8 25.17 9.8 25.17"/>
    <g>
      <polygon class="cls-1" points="9.99 11.55 10.85 11.55 10.85 9.71 12.66 9.71 12.66 8.97 10.85 8.97 10.85 7.95 12.92 7.95 12.92 7.2 9.99 7.2 9.99 11.55 9.99 11.55"/>
      <polygon class="cls-1" points="13.49 11.55 14.35 11.55 14.35 7.2 13.49 7.2 13.49 11.55 13.49 11.55"/>
      <path class="cls-1" d="M15.17,11.55h.86v-1.71h.77l1.03,1.71h1.05l-1.09-1.76c.48-.12,.82-.43,.82-1.28,0-1.28-.76-1.3-1.63-1.3h-1.81v4.34h0Zm1.69-3.6c.73,0,.87,.09,.87,.53,0,.55-.23,.62-.93,.62h-.77v-1.14h.83Z"/>
      <path class="cls-1" d="M19.11,10.18c.05,.9,.43,1.46,1.79,1.46,.62,0,1.63-.12,1.63-1.34,0-.87-.5-1.11-1.1-1.27l-.93-.26c-.24-.07-.43-.16-.43-.47,0-.35,.22-.43,.66-.43,.75,0,.76,.24,.8,.61h.86c-.02-.78-.4-1.37-1.63-1.37-1.29,0-1.57,.65-1.57,1.28,0,.79,.45,1.05,.96,1.19l1.01,.28c.37,.1,.48,.25,.48,.51,0,.44-.32,.51-.76,.51-.83,0-.89-.24-.93-.7h-.86Z"/>
      <polygon class="cls-1" points="24 11.55 24.86 11.55 24.86 7.97 26.11 7.97 26.11 7.2 22.74 7.2 22.74 7.97 24 7.97 24 11.55 24 11.55"/>
    </g>
  </g>
</svg>