<?xml version="1.0" encoding="utf-8"?>
<!-- Generator: Adobe Illustrator 27.5.0, SVG Export Plug-In . SVG Version: 6.00 Build 0)  -->
<svg version="1.1" id="Layer_1" xmlns="http://www.w3.org/2000/svg" xmlns:xlink="http://www.w3.org/1999/xlink" x="0px" y="0px"
	 viewBox="0 0 36 36" style="enable-background:new 0 0 36 36;" xml:space="preserve">
<style type="text/css">
	.st0{fill:#ED1F48;}
</style>
<g>
	<path class="st0" d="M11.5,27.1c1.3,0,1.9-2.2,0.8-3.3c-0.1-0.1-0.3-0.3-0.4-0.4c-5.1-5.4-6.7-4.1-11.8-1.8c-0.2,0.1-0.2,0.4,0,0.5
		c1.5,0.4,3,1.7,5,4.4L11,27C11.2,27.1,11.3,27.1,11.5,27.1L11.5,27.1z"/>
	<path class="st0" d="M35.7,0.1L16,25.7c-1.4,1.9-3.4,2.8-5.5,2.6l-4.7-0.5l4.9,6.2c2.6,3.2,6.7,2.6,8.7-1.2L36,0.4
		C36.1,0.1,35.8-0.1,35.7,0.1L35.7,0.1z"/>
</g>
</svg>
