<svg width="28" height="28" viewBox="0 0 28 28" fill="none" xmlns="http://www.w3.org/2000/svg">
<path d="M9.1552 7.17188L3.9587 7.17203C3.0647 7.17203 2.33325 7.89121 2.33325 8.78816V19.299M18.9012 7.17188L24.0411 7.17203C24.9351 7.17203 25.6666 7.89121 25.6666 8.78816V19.299M2.33325 19.299V21.7173C2.33325 22.6061 3.0647 23.3334 3.9587 23.3334H24.0411C24.9351 23.3334 25.6666 22.6061 25.6666 21.7173V19.299M2.33325 19.299H25.6666" stroke="#1D1D1D" stroke-width="1.75" stroke-miterlimit="10" stroke-linecap="round"/>
<path d="M11.3604 8.93335C12.5454 8.93335 13.506 7.97824 13.506 6.80005C13.506 5.62186 12.5454 4.66675 11.3604 4.66675C10.1755 4.66675 9.21484 5.62186 9.21484 6.80005C9.21484 7.97824 10.1755 8.93335 11.3604 8.93335Z" stroke="#0033A1" stroke-width="1.75" stroke-miterlimit="10" stroke-linejoin="round"/>
<path d="M13.1296 5.59595L18.1442 12.8362" stroke="#0033A1" stroke-width="1.75" stroke-miterlimit="10" stroke-linecap="round" stroke-linejoin="round"/>
<path d="M16.6629 8.93335C17.8479 8.93335 18.8085 7.97824 18.8085 6.80005C18.8085 5.62186 17.8479 4.66675 16.6629 4.66675C15.478 4.66675 14.5173 5.62186 14.5173 6.80005C14.5173 7.97824 15.478 8.93335 16.6629 8.93335Z" stroke="#0033A1" stroke-width="1.75" stroke-miterlimit="10" stroke-linejoin="round"/>
<path d="M9.87793 12.8362L14.8924 5.59595" stroke="#0033A1" stroke-width="1.75" stroke-miterlimit="10" stroke-linecap="round" stroke-linejoin="round"/>
</svg>
