<svg width="29" height="28" viewBox="0 0 29 28" fill="none" xmlns="http://www.w3.org/2000/svg">
<g clip-path="url(#clip0_613_116)">
<path fill-rule="evenodd" clip-rule="evenodd" d="M19.5238 14.8258C20.7938 12.6071 21.8382 10.1515 21.8382 8.07379C21.8382 -2.62574 7.01532 -2.75626 7.01532 8.07379C7.01532 10.1515 8.05972 12.6071 9.32971 14.8258L10.3346 16.4713C10.7984 17.1876 11.2641 17.856 11.6973 18.4507L12.7054 19.7848C13.3131 20.5605 13.7389 21.0533 13.8053 21.1298C14.1335 21.5075 14.7203 21.5068 15.048 21.1298C15.1858 20.9713 16.8644 19.0262 18.5181 16.4726L19.5238 14.8258ZM20.1912 8.07379C20.1912 3.66119 17.203 1.65121 14.4268 1.65121C11.5574 1.65121 8.66235 3.63726 8.66235 8.07379C8.66235 11.784 12.8214 17.3053 14.4268 19.2982C16.0321 17.3055 20.1912 11.784 20.1912 8.07379Z" fill="#0033A1"/>
<path fill-rule="evenodd" clip-rule="evenodd" d="M28.3595 26.8523L23.4186 15.3248C23.2887 15.0221 22.9909 14.8258 22.6617 14.8258H20.0361L18.9955 16.4726H22.1185L24.5565 22.1605L23.9052 22.4988L23.9028 22.5001C21.9893 23.4939 16.5353 26.3264 16.4882 26.3533H14.7645L14.761 26.3492L14.7594 26.3473C14.7492 26.3343 14.7375 26.3226 13.0362 24.6217L9.72427 21.3105L12.2022 20.0322L11.2205 18.7364L4.25424 22.2601L6.73483 16.4726L9.01507 16.4727H9.7774L8.8448 14.8258H6.1918C5.86239 14.8258 5.5646 15.0221 5.43493 15.3248L0.494046 26.8523C0.261624 27.3945 0.659818 28.0001 1.25091 28.0001H27.6026C28.1924 28.0001 28.5923 27.3958 28.3595 26.8523ZM3.23846 24.63L8.18384 22.099L12.4388 26.3533H2.49975L3.23846 24.63ZM20.0574 26.3533L25.2072 23.6783L26.3538 26.3533H20.0574Z" fill="black"/>
<path d="M16.8972 7.41504C16.8972 6.05298 15.7889 4.9447 14.4268 4.9447C13.0646 4.9447 11.9563 6.05298 11.9563 7.41504C11.9563 8.7771 13.0646 9.88516 14.4268 9.88516C15.7889 9.88516 16.8972 8.7771 16.8972 7.41504ZM13.6033 7.41504C13.6033 6.96088 13.9727 6.59152 14.4268 6.59152C14.8808 6.59152 15.2504 6.96088 15.2504 7.41504C15.2504 7.86899 14.8808 8.23834 14.4268 8.23834C13.9727 8.23834 13.6033 7.86899 13.6033 7.41504Z" fill="#0033A1"/>
</g>
<defs>
<clipPath id="clip0_613_116">
<rect width="28" height="28" fill="white" transform="translate(0.426758)"/>
</clipPath>
</defs>
</svg>
