<svg width="28" height="28" viewBox="0 0 28 28" fill="none" xmlns="http://www.w3.org/2000/svg">
<path d="M13.1046 3.57319C13.0829 3.5619 13.0571 3.5619 13.0354 3.57319L4.33501 8.09981C4.26538 8.13604 4.29113 8.24135 4.36963 8.24135H21.7704C21.8488 8.24135 21.8746 8.13604 21.805 8.09981L13.1046 3.57319Z" fill="#1D1D1D"/>
<path d="M6.83436 12.1465V19.1758M13.07 12.1465V19.1758M19.3056 12.1465V15.9127M3.37012 23.0809H14.9102M21.7704 8.24135H4.36963C4.29113 8.24135 4.26538 8.13604 4.33501 8.09981L13.0354 3.57319C13.0571 3.5619 13.0829 3.5619 13.1046 3.57319L21.805 8.09981C21.8746 8.13604 21.8488 8.24135 21.7704 8.24135Z" stroke="#1D1D1D" stroke-width="1.5" stroke-linecap="round"/>
<path d="M19.7495 22.414L20.9495 23.614L23.5595 21.014" stroke="#0033A1" stroke-linecap="round" stroke-linejoin="round"/>
<circle cx="21.6545" cy="22.3142" r="4.5" stroke="#0033A1" stroke-width="1.5"/>
</svg>
