<svg width="28" height="28" viewBox="0 0 28 28" fill="none" xmlns="http://www.w3.org/2000/svg">
<path d="M24.8889 3.11108C26.6049 3.11108 28 4.50379 28 6.2222V21.7778C28 23.4937 26.6049 24.8889 24.8889 24.8889H3.11111C1.39271 24.8889 0 23.4937 0 21.7778V6.2222C0 4.50379 1.39271 3.11108 3.11111 3.11108H24.8889ZM24.8889 4.66664H3.11111C2.25215 4.66664 1.55556 5.36324 1.55556 6.2222V21.7778C1.55556 22.6382 2.25215 23.3333 3.11111 23.3333H24.8889C25.7493 23.3333 26.4444 22.6382 26.4444 21.7778V6.2222C26.4444 5.36324 25.7493 4.66664 24.8889 4.66664Z" fill="#1D1D1D"/>
<path fill-rule="evenodd" clip-rule="evenodd" d="M3.16357 10.9076C3.16357 9.83327 4.03371 8.96313 5.10802 8.96313H8.21913C9.29344 8.96313 10.1636 9.83327 10.1636 10.9076V13.2409C10.1636 14.3152 9.29344 15.1854 8.21913 15.1854H5.10802C4.03371 15.1854 3.16357 14.3152 3.16357 13.2409V10.9076ZM4.71913 13.2409V10.9076C4.71913 10.6937 4.89413 10.5187 5.10802 10.5187H8.21913C8.43302 10.5187 8.60802 10.6937 8.60802 10.9076V13.2409C8.60802 13.4548 8.43302 13.6298 8.21913 13.6298H5.10802C4.89413 13.6298 4.71913 13.4548 4.71913 13.2409Z" fill="#1D1D1D"/>
<path d="M23.3858 18.0781C23.8136 18.0781 24.1636 18.4281 24.1636 18.8559C24.1636 19.2837 23.8136 19.6337 23.3858 19.6337H20.2747C19.8469 19.6337 19.4969 19.2837 19.4969 18.8559C19.4969 18.4281 19.8469 18.0781 20.2747 18.0781H23.3858Z" fill="#0033A1"/>
<path d="M10.1636 18.8559C10.1636 18.4281 10.5136 18.0781 10.9414 18.0781H17.1636C17.5914 18.0781 17.9414 18.4281 17.9414 18.8559C17.9414 19.2837 17.5914 19.6337 17.1636 19.6337H10.9414C10.5136 19.6337 10.1636 19.2837 10.1636 18.8559Z" fill="#0033A1"/>
</svg>
