<svg width="28" height="28" viewBox="0 0 28 28" fill="none" xmlns="http://www.w3.org/2000/svg">
<path d="M7.02744 5.52942H25.7176C25.8736 5.52942 26 5.65584 26 5.81177V22.1882C26 22.3442 25.8736 22.4706 25.7176 22.4706H2.28235C2.12642 22.4706 2 22.3442 2 22.1882V5.81177C2 5.65584 2.12642 5.52942 2.28235 5.52942H4.54901" stroke="black" stroke-width="1.5" stroke-miterlimit="10" stroke-linecap="round" stroke-linejoin="round"/>
<path d="M10.023 12.0979H10.3504C11.2515 12.0979 11.9819 12.8283 11.9819 13.7294V15.1535C11.9819 15.5711 11.6434 15.9096 11.2258 15.9096H5.67917C5.26157 15.9096 4.9231 15.5711 4.9231 15.1535V13.7294C4.9231 12.8283 5.65354 12.0979 6.5546 12.0979H6.77583" stroke="black" stroke-width="1.5" stroke-miterlimit="10" stroke-linecap="round" stroke-linejoin="round"/>
<path d="M11.4051 19.8941H5.49987C5.18131 19.8941 4.9231 19.6359 4.9231 19.3174V18.3533C4.9231 18.0347 5.18131 17.7765 5.49987 17.7765H11.4051C11.7237 17.7765 11.9819 18.0347 11.9819 18.3533V19.3174C11.9819 19.6359 11.7237 19.8941 11.4051 19.8941Z" stroke="black" stroke-width="1.5" stroke-miterlimit="10" stroke-linecap="round" stroke-linejoin="round"/>
<path d="M6.33496 10.6193V9.76846C6.33496 8.59889 7.28303 7.65082 8.45261 7.65082C9.62218 7.65082 10.5703 8.59889 10.5703 9.76846V10.6118C10.5703 11.7834 9.62049 12.7332 8.44887 12.7332C7.28141 12.7332 6.33496 11.7868 6.33496 10.6193Z" stroke="black" stroke-width="1.5" stroke-miterlimit="10" stroke-linecap="round" stroke-linejoin="round"/>
<path d="M17.5218 17.8987C16.185 17.1072 15.1858 15.3122 15.1858 13.5484C15.1858 11.1919 16.9696 9.78357 18.9589 9.78357C20.6986 9.78357 22.1502 11.0945 22.4872 12.9994" stroke="#0033A1" stroke-width="1.5" stroke-miterlimit="10" stroke-linecap="round" stroke-linejoin="round"/>
<path d="M20.3591 12.7088C20.5724 13.1201 21.2071 14.2425 22.3135 15.4374" stroke="#0033A1" stroke-width="1.5" stroke-miterlimit="10" stroke-linecap="round" stroke-linejoin="round"/>
<path d="M20.0022 18.1191C18.4585 16.5268 17.5667 14.9712 17.235 14.3339C16.7865 13.4706 17.1221 12.4074 17.9853 11.9588C18.2694 11.811 18.5754 11.7484 18.874 11.7618" stroke="#0033A1" stroke-width="1.5" stroke-miterlimit="10" stroke-linecap="round" stroke-linejoin="round"/>
<path d="M19.125 13.9931C19.125 13.9931 20.0808 15.6861 21.3588 16.9414" stroke="#0033A1" stroke-width="1.5" stroke-miterlimit="10" stroke-linecap="round" stroke-linejoin="round"/>
</svg>
