<svg width="28" height="28" viewBox="0 0 28 28" fill="none" xmlns="http://www.w3.org/2000/svg">
<path fill-rule="evenodd" clip-rule="evenodd" d="M14.75 14C16.3238 14 17.6011 12.7226 17.6011 11.1488C17.6011 9.57494 16.3238 8.29761 14.75 8.29761C13.1761 8.29761 11.8988 9.57494 11.8988 11.1488C11.8988 12.7226 13.1761 14 14.75 14ZM15.8904 11.1488C15.8904 10.5215 15.3772 10.0083 14.75 10.0083C14.1227 10.0083 13.6095 10.5215 13.6095 11.1488C13.6095 11.776 14.1227 12.2893 14.75 12.2893C15.3772 12.2893 15.8904 11.776 15.8904 11.1488Z" fill="#0033A1"/>
<path fill-rule="evenodd" clip-rule="evenodd" d="M20.4523 18.5505C20.4523 16.1669 16.6774 15.1404 14.75 15.1404C12.8226 15.1404 9.04761 16.1669 9.04761 18.5505C9.04761 19.1866 9.56332 19.7023 10.1995 19.7023H19.3004C19.9366 19.7023 20.4523 19.1866 20.4523 18.5505ZM14.75 16.8511C13.6948 16.8511 12.451 17.1994 11.6378 17.6413C11.4471 17.7448 11.5283 17.9916 11.7453 17.9916H17.7661C17.983 17.9916 18.0642 17.7448 17.8735 17.6413C17.0599 17.1994 15.8142 16.8511 14.75 16.8511Z" fill="#0033A1"/>
<path d="M7.75 10L4.75 10" stroke="#1D1D1D" stroke-width="1.75" stroke-linecap="round"/>
<path d="M7.75 18L4.75 18" stroke="#1D1D1D" stroke-width="1.75" stroke-linecap="round"/>
<path d="M7.75 14L4.75 14" stroke="#1D1D1D" stroke-width="1.75" stroke-linecap="round"/>
<path d="M6.25 19V9C6.25 7.067 7.817 5.5 9.75 5.5H19.75C21.683 5.5 23.25 7.067 23.25 9V19C23.25 20.933 21.683 22.5 19.75 22.5H9.75C7.817 22.5 6.25 20.933 6.25 19Z" stroke="#1D1D1D" stroke-width="1.75" stroke-linejoin="round"/>
</svg>
