<svg width="29" height="28" viewBox="0 0 29 28" fill="none" xmlns="http://www.w3.org/2000/svg">
<g clip-path="url(#clip0_613_119)">
<path d="M8.10889 12.2759H3.60889C2.50432 12.2759 1.60889 13.1713 1.60889 14.2759V17.7759C1.60889 18.8805 2.50432 19.7759 3.60889 19.7759H5.10889M8.10889 12.2759H21.6089C22.7135 12.2759 23.6089 13.1713 23.6089 14.2759V17.7759C23.6089 18.8805 22.7135 19.7759 21.6089 19.7759H21.1089M8.10889 12.2759V7.27588M21.1089 19.7759V21.7759M21.1089 19.7759H5.10889M5.10889 19.7759V21.7759" stroke="#1D1D1D" stroke-width="1.5" stroke-linecap="round"/>
<path d="M5.60889 6.27595C6.44222 4.94262 9.10889 3.77594 11.1089 6.27595M3.60889 4.77596C5.10889 2.77596 9.60889 0.77594 12.6089 4.77596" stroke="#0033A1" stroke-width="1.5" stroke-linecap="round"/>
<circle cx="22.7981" cy="20.5034" r="4.80227" fill="white"/>
<path d="M26.6524 20.5879C26.6524 21.4365 26.377 22.2204 25.9129 22.8563L28.2534 25.1987C28.4845 25.4298 28.4845 25.8051 28.2534 26.0362C28.0223 26.2673 27.647 26.2673 27.4159 26.0362L25.0754 23.6938C24.4395 24.1597 23.6556 24.4333 22.807 24.4333C20.6828 24.4333 18.9617 22.7121 18.9617 20.5879C18.9617 18.4637 20.6828 16.7426 22.807 16.7426C24.9312 16.7426 26.6524 18.4637 26.6524 20.5879ZM22.807 23.2501C23.1566 23.2501 23.5028 23.1813 23.8258 23.0475C24.1488 22.9137 24.4423 22.7176 24.6895 22.4704C24.9367 22.2232 25.1328 21.9297 25.2666 21.6067C25.4004 21.2837 25.4692 20.9375 25.4692 20.5879C25.4692 20.2383 25.4004 19.8921 25.2666 19.5692C25.1328 19.2462 24.9367 18.9527 24.6895 18.7055C24.4423 18.4583 24.1488 18.2622 23.8258 18.1284C23.5028 17.9946 23.1566 17.9257 22.807 17.9257C22.4574 17.9257 22.1113 17.9946 21.7883 18.1284C21.4653 18.2622 21.1718 18.4583 20.9246 18.7055C20.6774 18.9527 20.4813 19.2462 20.3475 19.5692C20.2137 19.8921 20.1449 20.2383 20.1449 20.5879C20.1449 20.9375 20.2137 21.2837 20.3475 21.6067C20.4813 21.9297 20.6774 22.2232 20.9246 22.4704C21.1718 22.7176 21.4653 22.9137 21.7883 23.0475C22.1113 23.1813 22.4574 23.2501 22.807 23.2501Z" fill="#0033A1"/>
<path d="M17.2229 10.0555C17.0059 10.0555 16.8378 9.98503 16.7188 9.844C16.6068 9.69468 16.5508 9.49144 16.5508 9.23428V1.90513C16.5508 1.63967 16.6068 1.43643 16.7188 1.2954C16.8378 1.15437 17.0059 1.08386 17.2229 1.08386C17.4399 1.08386 17.6045 1.15437 17.7165 1.2954C17.8355 1.43643 17.895 1.63967 17.895 1.90513V9.23428C17.895 9.49144 17.839 9.69468 17.727 9.844C17.615 9.98503 17.4469 10.0555 17.2229 10.0555Z" fill="#0033A1"/>
<path d="M20.1868 10.0555C19.9697 10.0555 19.8017 9.98503 19.6827 9.844C19.5707 9.69468 19.5147 9.49144 19.5147 9.23428V1.99223C19.5147 1.72677 19.5742 1.52768 19.6932 1.39495C19.8122 1.25392 19.9802 1.18341 20.1973 1.18341H22.7282C23.5404 1.18341 24.167 1.42398 24.608 1.90513C25.0491 2.38627 25.2697 3.05821 25.2697 3.92095C25.2697 4.7837 25.0491 5.45979 24.608 5.94923C24.167 6.43037 23.5404 6.67094 22.7282 6.67094H20.8589V9.23428C20.8589 9.49144 20.8029 9.69468 20.6909 9.844C20.5788 9.98503 20.4108 10.0555 20.1868 10.0555ZM20.8589 5.41416H22.5182C22.9943 5.41416 23.3548 5.28973 23.5999 5.04086C23.8449 4.7837 23.9674 4.41039 23.9674 3.92095C23.9674 3.43151 23.8449 3.06236 23.5999 2.81349C23.3548 2.56463 22.9943 2.44019 22.5182 2.44019H20.8589V5.41416Z" fill="#0033A1"/>
</g>
<defs>
<clipPath id="clip0_613_119">
<rect width="28" height="28" fill="white" transform="translate(0.426758)"/>
</clipPath>
</defs>
</svg>
