<svg width="28" height="28" viewBox="0 0 28 28" fill="none" xmlns="http://www.w3.org/2000/svg">
<path d="M13.3326 3.20307C13.3109 3.19178 13.2851 3.19178 13.2634 3.20307L4.56303 7.72969C4.4934 7.76592 4.51916 7.87123 4.59765 7.87123H21.9984C22.0769 7.87123 22.1026 7.76592 22.033 7.72969L13.3326 3.20307Z" fill="#1D1D1D"/>
<path d="M3.59814 22.7108H15.1382M21.9984 7.87123H4.59765C4.51916 7.87123 4.4934 7.76592 4.56303 7.72969L13.2634 3.20307C13.2851 3.19178 13.3109 3.19178 13.3326 3.20307L22.033 7.72969C22.1026 7.76592 22.0769 7.87123 21.9984 7.87123Z" stroke="#1D1D1D" stroke-width="1.5" stroke-linecap="round"/>
<path d="M4.42848 10.6432C4.70462 10.6432 4.92848 10.8671 4.92848 11.1432V18.8705C4.92848 19.1467 4.70462 19.3705 4.42848 19.3705H4.09814C3.822 19.3705 3.59814 19.1467 3.59814 18.8705V11.1432C3.59814 10.8671 3.822 10.6432 4.09814 10.6432H4.42848Z" fill="#0033A1"/>
<path d="M6.52301 19.3705C6.24687 19.3705 6.02301 19.1467 6.02301 18.8705V11.1432C6.02301 10.8671 6.24687 10.6432 6.52301 10.6432H9.68915C9.96529 10.6432 10.1892 10.8671 10.1892 11.1432V11.6646C10.1892 11.9407 9.96529 12.1646 9.68915 12.1646H7.35335V14.2441H9.41264C9.68878 14.2441 9.91264 14.468 9.91264 14.7441V15.2654C9.91264 15.5415 9.68878 15.7654 9.41264 15.7654H7.35335V18.8705C7.35335 19.1467 7.12949 19.3705 6.85335 19.3705H6.52301Z" fill="#0033A1"/>
<path d="M14.9629 13.1532C14.7006 13.1532 14.497 12.9437 14.4015 12.6994C14.3487 12.564 14.2751 12.4482 14.1809 12.3521C13.9945 12.1617 13.7416 12.0665 13.4221 12.0665C13.2049 12.0665 13.0216 12.1092 12.8721 12.1944C12.7226 12.2768 12.6079 12.3918 12.528 12.5396C12.4502 12.6873 12.4112 12.8549 12.4112 13.0424C12.4071 13.1986 12.4307 13.335 12.4819 13.4515C12.5352 13.568 12.6079 13.6688 12.7 13.754C12.7922 13.8364 12.8987 13.9089 13.0196 13.9714C13.1404 14.031 13.2695 14.0822 13.4067 14.1248L13.972 14.3123C14.2465 14.3975 14.4984 14.5111 14.7278 14.6532C14.9572 14.7952 15.1559 14.9699 15.3239 15.1773C15.4918 15.3847 15.6219 15.629 15.714 15.9103C15.8083 16.1915 15.8564 16.514 15.8584 16.8776C15.8564 17.4117 15.7581 17.8748 15.5635 18.2668C15.371 18.656 15.0924 18.9586 14.7278 19.1745C14.3653 19.3876 13.928 19.4941 13.4159 19.4941C12.9079 19.4941 12.4655 19.3861 12.0886 19.1702C11.7138 18.9543 11.4209 18.6347 11.2099 18.2114C11.0599 17.9054 10.9611 17.5474 10.9136 17.1375C10.8814 16.86 11.1101 16.6305 11.3894 16.6305H11.6924C11.9591 16.6305 12.1676 16.8438 12.2425 17.0997C12.2706 17.1956 12.3064 17.2835 12.3498 17.3634C12.4584 17.5566 12.6028 17.7029 12.783 17.8023C12.9653 17.8989 13.1711 17.9472 13.4005 17.9472C13.6259 17.9472 13.8215 17.9018 13.9874 17.8109C14.1553 17.7199 14.2854 17.5935 14.3776 17.4316C14.4697 17.2697 14.5158 17.0836 14.5158 16.8734C14.5158 16.6773 14.4738 16.5126 14.3899 16.379C14.3079 16.2455 14.1871 16.1319 14.0273 16.0381C13.8696 15.9444 13.676 15.8592 13.4466 15.7824L12.7615 15.5438C12.231 15.3648 11.8121 15.085 11.5049 14.7043C11.1977 14.3236 11.0451 13.8109 11.0471 13.166C11.0451 12.6376 11.1465 12.1759 11.3513 11.781C11.5582 11.3861 11.8418 11.0779 12.2023 10.8563C12.5628 10.6347 12.9725 10.5239 13.4313 10.5239C13.8983 10.5239 14.3059 10.6347 14.6541 10.8563C15.0043 11.0779 15.2767 11.3861 15.4713 11.781C15.6004 12.0429 15.688 12.3322 15.7341 12.649C15.7743 12.9246 15.5449 13.1532 15.2665 13.1532H14.9629Z" fill="#0033A1"/>
<path d="M22.2343 13.1591C22.2866 13.4473 22.0536 13.6986 21.7607 13.6986H21.411C21.1545 13.6986 20.9471 13.5019 20.877 13.2551C20.8572 13.1854 20.8345 13.1187 20.8088 13.0552C20.733 12.8648 20.6357 12.7029 20.5169 12.5694C20.3981 12.4359 20.2609 12.3336 20.1052 12.2626C19.9516 12.1915 19.7847 12.156 19.6044 12.156C19.2788 12.156 18.9951 12.2682 18.7534 12.4927C18.5117 12.7143 18.3243 13.0381 18.1911 13.4643C18.058 13.8876 17.9914 14.4018 17.9914 15.0069C17.9914 15.629 18.058 16.1518 18.1911 16.5751C18.3263 16.9984 18.5148 17.318 18.7565 17.5339C18.9982 17.7498 19.2777 17.8577 19.5952 17.8577C19.7734 17.8577 19.9383 17.8251 20.0899 17.7597C20.2435 17.6944 20.3797 17.5992 20.4985 17.4742C20.6173 17.3464 20.7156 17.1915 20.7934 17.0097C20.8202 16.9487 20.8443 16.8848 20.8655 16.8181C20.9421 16.5779 21.1485 16.3888 21.4005 16.3904L21.7632 16.3927C22.0551 16.3945 22.2861 16.6462 22.2256 16.9318C22.1806 17.1438 22.1201 17.3516 22.0439 17.5552C21.9067 17.9245 21.7213 18.2555 21.4878 18.5481C21.2564 18.8378 20.9798 19.068 20.6583 19.2384C20.3387 19.406 19.9772 19.4898 19.5737 19.4898C19.0125 19.4898 18.5107 19.3137 18.0683 18.9614C17.6279 18.6092 17.2797 18.0992 17.0236 17.4316C16.7697 16.764 16.6427 15.9557 16.6427 15.0069C16.6427 14.0552 16.7717 13.2455 17.0298 12.5779C17.2879 11.9103 17.6381 11.4018 18.0805 11.0523C18.523 10.7001 19.0207 10.5239 19.5737 10.5239C19.9383 10.5239 20.2763 10.5949 20.5876 10.737C20.901 10.879 21.1785 11.0864 21.4202 11.3592C21.6619 11.629 21.8585 11.96 22.0101 12.3521C22.1067 12.5986 22.1814 12.8676 22.2343 13.1591Z" fill="#0033A1"/>
<circle cx="19.9346" cy="21.0089" r="3.67334" fill="white"/>
<path d="M22.8828 21.0737C22.8828 21.7228 22.6721 22.3224 22.3171 22.8089L24.1074 24.6006C24.2842 24.7773 24.2842 25.0644 24.1074 25.2412C23.9307 25.4179 23.6436 25.4179 23.4668 25.2412L21.6765 23.4495C21.1901 23.8058 20.5905 24.0151 19.9414 24.0151C18.3166 24.0151 17 22.6986 17 21.0737C17 19.4489 18.3166 18.1323 19.9414 18.1323C21.5662 18.1323 22.8828 19.4489 22.8828 21.0737ZM19.9414 23.1101C20.2088 23.1101 20.4736 23.0574 20.7207 22.9551C20.9677 22.8527 21.1922 22.7027 21.3813 22.5136C21.5704 22.3245 21.7204 22.1001 21.8227 21.853C21.9251 21.6059 21.9777 21.3411 21.9777 21.0737C21.9777 20.8063 21.9251 20.5415 21.8227 20.2944C21.7204 20.0474 21.5704 19.8229 21.3813 19.6338C21.1922 19.4447 20.9677 19.2947 20.7207 19.1924C20.4736 19.09 20.2088 19.0374 19.9414 19.0374C19.674 19.0374 19.4092 19.09 19.1621 19.1924C18.9151 19.2947 18.6906 19.4447 18.5015 19.6338C18.3124 19.8229 18.1624 20.0474 18.0601 20.2944C17.9577 20.5415 17.905 20.8063 17.905 21.0737C17.905 21.3411 17.9577 21.6059 18.0601 21.853C18.1624 22.1001 18.3124 22.3245 18.5015 22.5136C18.6906 22.7027 18.9151 22.8527 19.1621 22.9551C19.4092 23.0574 19.674 23.1101 19.9414 23.1101Z" fill="#0033A1"/>
</svg>
