<svg width="28" height="28" viewBox="0 0 28 28" fill="none" xmlns="http://www.w3.org/2000/svg">
<path d="M8.12434 12.3089H6.07422C5.52193 12.3089 5.07422 11.8612 5.07422 11.3089V6.42465C5.07422 5.5777 5.76081 4.89111 6.60776 4.89111V4.89111M6.60776 4.89111V4.89111C7.44534 4.89111 8.12434 5.57011 8.12434 6.4077V22.1088C8.12434 22.6611 8.57206 23.1088 9.12434 23.1088H21.9257C22.478 23.1088 22.9257 22.6611 22.9257 22.1088V5.89111C22.9257 5.33883 22.478 4.89111 21.9257 4.89111H6.60776Z" stroke="#1D1D1D" stroke-width="1.5" stroke-linecap="round" stroke-linejoin="round"/>
<path d="M9.97876 7.87622H11.415M12.9239 7.87622H11.415M11.415 7.87622V12.3383M13.8643 12.3383L14.1495 11.3433M14.1495 11.3433L15.1135 7.87622L16.172 11.3433M14.1495 11.3433H16.172M17.9617 7.87622L20.5275 12.3383M20.5275 7.87622L17.9617 12.3383M16.4757 12.3383L16.172 11.3433" stroke="#0033A1" stroke-width="1.5" stroke-linecap="round" stroke-linejoin="round"/>
</svg>
