<svg width="28" height="28" viewBox="0 0 28 28" fill="none" xmlns="http://www.w3.org/2000/svg">
<path d="M4.13843 9.69837H8.27587M4.13843 14.0632H8.27587M4.13842 18.3648H8.56723M22.7278 6.7181V21.2818C22.7278 22.5704 21.6831 23.6151 20.3944 23.6151H8.56963C7.28096 23.6151 6.23629 22.5704 6.23629 21.2818V6.7181C6.23629 5.42943 7.28096 4.38477 8.56963 4.38477H20.3944C21.6831 4.38477 22.7278 5.42944 22.7278 6.7181Z" stroke="#1D1D1D" stroke-width="1.75" stroke-linecap="round"/>
<path fill-rule="evenodd" clip-rule="evenodd" d="M12.248 8.54761C11.8721 8.54761 11.5674 8.8523 11.5674 9.22816C11.5674 9.60402 11.8721 9.90872 12.248 9.90872H13.1331C13.1346 9.90873 13.1362 9.90873 13.1377 9.90873C14.0995 9.90873 14.7265 10.2166 15.0935 10.5915C15.2834 10.7854 15.4158 11.0088 15.4924 11.2437H12.2057C11.8298 11.2437 11.5252 11.5484 11.5252 11.9242C11.5252 12.3001 11.8298 12.6048 12.2057 12.6048H15.3246C15.1897 12.8224 14.9977 13.0215 14.7445 13.1837C14.242 13.5054 13.4496 13.7093 12.309 13.5341C12.0316 13.4915 11.7565 13.6235 11.6162 13.8666C11.476 14.1097 11.4993 14.414 11.675 14.6329L15.3404 19.198C15.5757 19.4911 16.0041 19.5379 16.2971 19.3026C16.5902 19.0673 16.6371 18.6389 16.4017 18.3459L13.6609 14.9322C14.3664 14.8608 14.9765 14.6514 15.4785 14.3299C16.1529 13.8981 16.6012 13.282 16.8056 12.6048H17.8226C18.1985 12.6048 18.5032 12.3001 18.5032 11.9242C18.5032 11.5484 18.1985 11.2437 17.8226 11.2437H16.8907C16.8097 10.7687 16.6126 10.3098 16.3013 9.90872H17.8649C18.2408 9.90872 18.5454 9.60402 18.5454 9.22816C18.5454 8.8523 18.2408 8.54761 17.8649 8.54761H12.248Z" fill="#0033A1"/>
</svg>
