<svg width="28" height="28" viewBox="0 0 28 28" fill="none" xmlns="http://www.w3.org/2000/svg">
<path d="M24.9882 12.1435V9.91552M16.1416 21.5696H3.19278C2.30157 21.5696 1.56763 20.8282 1.56763 19.928V9.91552M1.56763 9.91552V6.74202C1.56763 5.82854 2.30157 5.08716 3.19278 5.08716H23.35C24.2543 5.08716 24.9882 5.82854 24.9882 6.74202V9.91552M1.56763 9.91552H24.9882" stroke="#1D1D1D" stroke-width="1.75" stroke-miterlimit="10" stroke-linecap="round"/>
<path d="M21.6911 14C23.945 14 25.7706 15.8441 25.7706 18.1209C25.7706 20.3976 23.945 22.2417 21.6911 22.2417C19.4372 22.2417 17.6116 20.3976 17.6116 18.1209" stroke="#0033A1" stroke-width="1.75" stroke-miterlimit="10" stroke-linecap="round"/>
<path d="M20.877 16.2241C22.8124 16.2241 22.672 18.7468 20.4712 18.3999L22.0632 20.4022" stroke="#0033A1" stroke-width="0.583333" stroke-linecap="round" stroke-linejoin="round"/>
<path d="M20.4712 17.4067H22.9061" stroke="#0033A1" stroke-width="0.583333" stroke-linecap="round" stroke-linejoin="round"/>
<path d="M20.4712 16.2241H22.9061" stroke="#0033A1" stroke-width="0.583333" stroke-linecap="round" stroke-linejoin="round"/>
</svg>
