<svg width="29" height="28" viewBox="0 0 29 28" fill="none" xmlns="http://www.w3.org/2000/svg">
<path d="M17.6874 11.301L15.7339 11.301C15.3701 11.301 15.0805 11.5906 15.0805 11.9544C15.0805 12.3181 15.3701 12.6078 15.7339 12.6078L17.6874 12.6078C18.7651 12.6078 19.6476 13.4902 19.6476 14.568C19.6476 15.6458 18.7651 16.5283 17.6874 16.5283L15.7339 16.5283C15.3701 16.5283 15.0805 16.8179 15.0805 17.1817C15.0805 17.5454 15.3701 17.8351 15.7339 17.8351L17.6874 17.8351C19.4926 17.8351 20.9544 16.3733 20.9477 14.5748C20.9477 12.7695 19.4859 11.3077 17.6874 11.3145L17.6874 11.301ZM11.8134 14.5613C11.8134 14.925 12.1031 15.2147 12.4668 15.2147L16.3873 15.2147C16.751 15.2147 17.0407 14.925 17.0407 14.5613C17.0407 14.1975 16.751 13.9079 16.3873 13.9079L12.4668 13.9079C12.1031 13.9079 11.8134 14.1975 11.8134 14.5613V14.5613ZM13.1202 16.5148L11.1667 16.5148C10.089 16.5148 9.20651 15.6323 9.20651 14.5546C9.20651 13.4768 10.089 12.5943 11.1667 12.5943L13.1202 12.5943C13.484 12.5943 13.7736 12.3047 13.7736 11.9409C13.7736 11.5772 13.484 11.2875 13.1202 11.2875L11.1667 11.2875C9.36145 11.2875 7.8997 12.7493 7.90643 14.5478C7.90643 16.3531 9.36818 17.8149 11.1667 17.8081L13.1202 17.8081C13.484 17.8081 13.7736 17.5185 13.7736 17.1547C13.7736 16.791 13.484 16.5013 13.1202 16.5013L13.1202 16.5148Z" fill="#0033A1"/>
<path d="M24.5952 7.06879H4.25636C2.93219 7.06879 1.85571 8.14527 1.85571 9.46944V19.6531C1.85571 20.9773 2.93219 22.0538 4.25636 22.0538H24.5952C25.9194 22.0538 26.9958 20.9773 26.9958 19.6531V9.46944C26.9958 8.14527 25.9194 7.06879 24.5952 7.06879Z" stroke="#404040" stroke-width="1.5"/>
</svg>
